<svg width="23" height="22" viewBox="0 0 23 22" fill="none" xmlns="http://www.w3.org/2000/svg">
<g clip-path="url(#clip0_2004_2070)">
<path d="M22.043 20.8494L15.8976 14.704C17.3744 12.9312 18.1108 10.6572 17.9537 8.35518C17.7965 6.05317 16.758 3.90036 15.054 2.3446C13.35 0.788838 11.1118 -0.0500981 8.80506 0.00231604C6.49829 0.0547302 4.30053 0.994459 2.66898 2.62601C1.03743 4.25756 0.0976989 6.45532 0.0452848 8.76209C-0.00712933 11.0689 0.831806 13.307 2.38757 15.011C3.94333 16.715 6.09614 17.7536 8.39815 17.9107C10.7002 18.0678 12.9741 17.3314 14.747 15.8547L20.8923 22L22.043 20.8494ZM1.69954 8.98021C1.69954 7.53173 2.12907 6.11578 2.9338 4.91141C3.73853 3.70705 4.88232 2.76836 6.22054 2.21405C7.55876 1.65974 9.0313 1.51471 10.4519 1.7973C11.8726 2.07988 13.1775 2.77739 14.2018 3.80162C15.226 4.82584 15.9235 6.13079 16.2061 7.55144C16.4887 8.97208 16.3436 10.4446 15.7893 11.7828C15.235 13.1211 14.2963 14.2649 13.092 15.0696C11.8876 15.8743 10.4717 16.3038 9.02318 16.3038C7.08149 16.3017 5.21994 15.5294 3.84696 14.1564C2.47398 12.7834 1.7017 10.9219 1.69954 8.98021Z" fill="#333333"/>
</g>
<defs>
<clipPath id="clip0_2004_2070">
<rect width="22" height="22" fill="white" transform="translate(0.0429688)"/>
</clipPath>
</defs>
</svg>
