<svg width="21" height="22" viewBox="0 0 21 22" fill="none" xmlns="http://www.w3.org/2000/svg">
<g clip-path="url(#clip0_2004_2072)">
<path d="M10.043 1.375C10.9902 1.375 11.8986 1.73716 12.5684 2.38182C13.2381 3.02648 13.6144 3.90082 13.6144 4.8125V5.5H6.47154V4.8125C6.47154 3.90082 6.84781 3.02648 7.51759 2.38182C8.18736 1.73716 9.09577 1.375 10.043 1.375ZM15.043 5.5V4.8125C15.043 3.53615 14.5162 2.31207 13.5785 1.40955C12.6408 0.50703 11.3691 0 10.043 0C8.71689 0 7.44512 0.50703 6.50744 1.40955C5.56975 2.31207 5.04297 3.53615 5.04297 4.8125V5.5H0.0429688V19.25C0.0429688 19.9793 0.343988 20.6788 0.879807 21.1945C1.41562 21.7103 2.14235 22 2.90011 22H17.1858C17.9436 22 18.6703 21.7103 19.2061 21.1945C19.7419 20.6788 20.043 19.9793 20.043 19.25V5.5H15.043ZM1.47154 6.875H18.6144V19.25C18.6144 19.6147 18.4639 19.9644 18.196 20.2223C17.9281 20.4801 17.5647 20.625 17.1858 20.625H2.90011C2.52123 20.625 2.15787 20.4801 1.88996 20.2223C1.62205 19.9644 1.47154 19.6147 1.47154 19.25V6.875Z" fill="#333333"/>
</g>
<defs>
<clipPath id="clip0_2004_2072">
<rect width="20" height="22" fill="white" transform="translate(0.0429688)"/>
</clipPath>
</defs>
</svg>
