<svg width="23" height="22" viewBox="0 0 23 22" fill="none" xmlns="http://www.w3.org/2000/svg">
<g clip-path="url(#clip0_2004_2068)">
<path d="M11.043 13.2C17.115 13.2 22.043 15.5027 22.043 18.3333V22H0.0429688V18.3333C0.0429688 15.5027 4.97097 13.2 11.043 13.2ZM20.5763 18.3333C20.5763 16.3093 16.3083 14.6667 11.043 14.6667C5.77764 14.6667 1.50964 16.3093 1.50964 18.3333V20.5333H20.5763V18.3333ZM11.043 0C12.4044 0 13.7101 0.540832 14.6728 1.50352C15.6355 2.46621 16.1763 3.77189 16.1763 5.13333C16.1763 6.49478 15.6355 7.80046 14.6728 8.76315C13.7101 9.72583 12.4044 10.2667 11.043 10.2667C9.68152 10.2667 8.37584 9.72583 7.41315 8.76315C6.45047 7.80046 5.90964 6.49478 5.90964 5.13333C5.90964 3.77189 6.45047 2.46621 7.41315 1.50352C8.37584 0.540832 9.68152 0 11.043 0ZM11.043 1.46667C10.0705 1.46667 9.13788 1.85298 8.45024 2.54061C7.76261 3.22824 7.3763 4.16087 7.3763 5.13333C7.3763 6.10579 7.76261 7.03842 8.45024 7.72606C9.13788 8.41369 10.0705 8.8 11.043 8.8C12.0154 8.8 12.9481 8.41369 13.6357 7.72606C14.3233 7.03842 14.7096 6.10579 14.7096 5.13333C14.7096 4.16087 14.3233 3.22824 13.6357 2.54061C12.9481 1.85298 12.0154 1.46667 11.043 1.46667Z" fill="#333333"/>
</g>
<defs>
<clipPath id="clip0_2004_2068">
<rect width="22" height="22" fill="white" transform="translate(0.0429688)"/>
</clipPath>
</defs>
</svg>
