<svg width="25" height="24" viewBox="0 0 25 24" fill="none" xmlns="http://www.w3.org/2000/svg">
<path d="M17.963 11.6199C17.9154 11.4972 17.844 11.385 17.753 11.2899L12.753 6.28994C12.6597 6.1967 12.549 6.12274 12.4272 6.07228C12.3054 6.02182 12.1748 5.99585 12.043 5.99585C11.7767 5.99585 11.5213 6.10164 11.333 6.28994C11.2397 6.38318 11.1658 6.49387 11.1153 6.61569C11.0648 6.73751 11.0389 6.86808 11.0389 6.99994C11.0389 7.26624 11.1447 7.52164 11.333 7.70994L14.633 10.9999H7.04297C6.77775 10.9999 6.5234 11.1053 6.33586 11.2928C6.14833 11.4804 6.04297 11.7347 6.04297 11.9999C6.04297 12.2652 6.14833 12.5195 6.33586 12.707C6.5234 12.8946 6.77775 12.9999 7.04297 12.9999H14.633L11.333 16.2899C11.2392 16.3829 11.1648 16.4935 11.1141 16.6154C11.0633 16.7372 11.0372 16.8679 11.0372 16.9999C11.0372 17.132 11.0633 17.2627 11.1141 17.3845C11.1648 17.5064 11.2392 17.617 11.333 17.7099C11.4259 17.8037 11.5365 17.8781 11.6584 17.9288C11.7803 17.9796 11.911 18.0057 12.043 18.0057C12.175 18.0057 12.3057 17.9796 12.4275 17.9288C12.5494 17.8781 12.66 17.8037 12.753 17.7099L17.753 12.7099C17.844 12.6148 17.9154 12.5027 17.963 12.3799C18.063 12.1365 18.063 11.8634 17.963 11.6199Z" fill="#FDFDFD"/>
</svg>
