<svg width="51" height="35" viewBox="0 0 51 35" fill="none" xmlns="http://www.w3.org/2000/svg">
<g clip-path="url(#clip0_2004_2078)">
<path d="M3.04925 6.93628C3.12902 5.06912 3.90825 3.3056 5.2245 2.01335C6.54076 0.721107 8.29245 -0.000130467 10.1144 1.77023e-08H39.9715C41.7935 -0.000130467 43.5452 0.721107 44.8614 2.01335C46.1777 3.3056 46.9569 5.06912 47.0367 6.93628L44.7173 8.25809L25.043 19.1243L5.36868 8.25809L3.04925 6.93628ZM3.04297 10.6196V28.2094C3.04297 30.1332 3.78799 31.9782 5.11414 33.3386C6.44029 34.699 8.23894 35.4632 10.1144 35.4632H39.9715C41.847 35.4632 43.6456 34.699 44.9718 33.3386C46.2979 31.9782 47.043 30.1332 47.043 28.2094V10.6196L46.2164 11.0919L25.7878 22.3757C25.5589 22.5021 25.303 22.5683 25.043 22.5683C24.783 22.5683 24.527 22.5021 24.2981 22.3757L3.85068 11.0806L3.04297 10.6196Z" fill="#FDFDFD"/>
</g>
<defs>
<clipPath id="clip0_2004_2078">
<rect width="50" height="35" fill="white" transform="translate(0.0429688)"/>
</clipPath>
</defs>
</svg>
